<svg width="555" height="174" viewBox="0 0 555 174" fill="none" xmlns="http://www.w3.org/2000/svg">
<path d="M516.695 5.89348C506.986 14.4185 495.619 36.9152 490.646 58.4646C487.094 73.1466 485.199 77.4091 481.647 77.8827C467.439 80.014 466.492 80.7244 466.492 88.7758C466.492 97.0641 469.57 99.6689 478.569 99.6689C482.595 99.6689 483.068 101.563 483.068 114.825C483.068 129.743 483.068 129.743 471.228 140.873C451.573 159.344 448.021 154.371 454.888 117.429C461.045 85.9342 459.624 80.7244 445.179 80.7244C433.576 80.7244 420.078 91.8543 409.184 110.325C403.975 118.85 402.554 120.508 403.501 115.535C409.658 88.539 407.527 80.7244 394.739 80.7244C381.004 80.7244 367.033 93.512 357.324 114.588C351.877 126.665 351.404 120.508 356.377 102.037C361.823 81.9084 361.349 80.7244 350.456 80.7244C339.8 80.7244 335.301 86.6446 332.459 103.931C331.038 112.457 330.091 113.641 322.75 115.061C312.331 116.956 312.567 117.193 315.409 103.931C318.961 89.2494 313.988 80.7244 302.148 80.7244C289.123 80.7244 281.072 92.0911 282.256 108.904C282.73 120.508 282.019 123.823 274.678 135.19C265.443 150.109 265.68 150.819 263.312 111.746C261.891 84.9869 261.18 82.3821 256.681 80.4876C246.261 76.6987 240.341 82.8557 239.631 98.9585C238.92 111.509 238.21 113.641 233.711 114.825C224.949 117.193 222.581 116.482 222.581 111.272C222.581 94.9328 206.241 80.7244 187.77 80.7244C162.906 80.7244 144.435 102.984 144.435 133.059C144.435 139.926 143.014 143.005 138.041 147.03C123.832 158.16 121.464 149.162 128.332 111.746C133.305 86.171 131.647 80.7244 119.096 80.7244C104.177 80.7244 78.1287 104.879 78.1287 118.613C78.1287 120.271 77.4183 121.218 76.7079 120.508C75.9975 119.798 76.7079 112.693 78.1287 104.879C85.2329 68.8841 51.1327 72.673 32.1882 110.088C23.4264 127.139 22.716 126.191 28.3993 104.405C34.5563 80.4876 34.7931 80.7244 23.6632 80.7244C11.586 80.7244 8.03394 85.6973 3.53461 110.088C-3.56959 146.793 0.219316 171.421 13.2437 172.605C22.4791 173.553 25.084 170.237 30.5306 151.293C39.5292 120.271 57.5265 96.1168 53.7376 120.271C47.5806 158.634 49.9487 171.421 62.9731 172.605C71.9717 173.553 74.103 170.948 79.3127 152.95C85.9433 129.27 98.9677 107.72 103.467 112.457C104.414 113.167 103.704 120.745 102.283 129.033C96.126 161.475 100.862 173.079 119.807 173.079C131.173 173.079 137.804 170.474 146.092 162.896L151.302 158.16L159.827 165.738C178.298 181.841 213.109 170.001 219.265 145.609C220.686 139.689 228.264 135.19 236.552 135.19C240.104 135.19 241.052 137.795 242.236 148.451C244.13 166.685 248.63 173.079 260.233 173.079C271.6 173.079 278.704 167.632 290.307 149.635L299.306 135.664L313.751 136.611L327.96 137.321L329.144 151.293C330.565 168.343 334.354 173.553 344.299 172.605C351.404 171.895 351.877 170.948 359.929 146.557C372.716 107.957 383.136 99.4321 379.82 129.743C376.505 162.896 378.873 173.079 390.477 173.079C399.239 173.079 401.37 170.237 408.474 147.978C419.841 113.641 433.102 99.6689 429.55 126.191C424.577 163.37 428.129 173.079 446.837 173.079C458.914 173.079 469.097 168.58 480.463 157.923C486.62 152.24 488.751 151.293 489.699 154.134C499.171 180.894 549.374 178.526 549.374 151.293C549.374 142.294 544.638 140.873 534.218 147.267C516.695 157.45 510.538 151.293 508.17 120.271L506.749 99.6689H523.799C545.348 99.6689 552.689 96.3536 553.636 85.9342L554.347 78.3563H541.086H527.588L535.166 69.5945C551.742 50.65 557.425 20.1019 546.769 6.3671C540.139 -1.92114 526.641 -2.15794 516.695 5.89348ZM532.324 30.5214C533.034 41.1777 524.509 62.7271 516.221 70.0681C509.117 76.4619 509.117 74.5674 515.037 50.8868C523.088 18.9179 530.903 9.9192 532.324 30.5214ZM189.191 104.879C188.244 112.693 189.901 118.613 195.348 126.665C203.873 139.216 197.242 151.766 182.087 151.766C170.247 151.766 165.984 118.377 176.403 106.773C181.14 101.563 189.901 100.379 189.191 104.879Z" fill="url(#paint0_linear_2_26)"/>
<defs>
<linearGradient id="paint0_linear_2_26" x1="561" y1="170.5" x2="-14" y2="16.5" gradientUnits="userSpaceOnUse">
<stop stop-color="#319FFF"/>
<stop offset="1" stop-color="#AA01ED"/>
</linearGradient>
</defs>
</svg>
